# xmcd
#
# Track frame offsets:
#	150
#	8710
#	24487
#	38625
#	52795
#	68020
#	83167
#	98325
#	109930
#	119432
#	129092
#	135022
#
# Disc length: 1924 seconds
#
# Revision: 0
# Processed by: cddbd v1.4b42PL0 Copyright (c) Steve Scherf et al.
# Submitted via: EZCDDA 4.3.3.2
#
DISCID=7e07820c
DTITLE=Hoyt Axton - All-Time Favorites [CD2]
DYEAR=1900
DGENRE=
TTITLE0=I Love To Sing
TTITLE1=When The Morning Comes
TTITLE2=Poncho and Lefty
TTITLE3=Water For My Horses
TTITLE4=Sweet Misery
TTITLE5=Lion In The Winter
TTITLE6=Honky Tonk Music
TTITLE7=I Dream Of Highways
TTITLE8=The Devil
TTITLE9=Them Downers
TTITLE10=Jealous Man
TTITLE11=You're The Hangnail In My Life
EXTD=
EXTT0=
EXTT1=
EXTT2=
EXTT3=
EXTT4=
EXTT5=
EXTT6=
EXTT7=
EXTT8=
EXTT9=
EXTT10=
EXTT11=
PLAYORDER=
